Coordinates
version=1
nRows=10
nColumns=22
inDegrees=yes

Units are S.I. units (second, meters, Newtons, ...)
If the header above contains a line with 'inDegrees', this indicates whether rotational values are in degrees (yes) or radians (no).

endheader
time	pelvis_tilt	pelvis_list	pelvis_rotation	pelvis_tx	pelvis_ty	pelvis_tz	hip_flexion_r	hip_adduction_r	hip_rotation_r	knee_angle_r	ankle_angle_r	subtalar_angle_r	hip_flexion_l	hip_adduction_l	hip_rotation_l	knee_angle_l	ankle_angle_l	subtalar_angle_l	lumbar_extension	lumbar_bending	lumbar_rotation
      4.22000000	      1.10849429	     -1.11042462	      9.22198720	      0.06473799	      1.00034778	     -0.60416089	      7.31755992	     12.62146235	     -1.48668039	    -21.35905036	     11.78100790	    -13.74397626	     18.48588143	     -9.34519497	      1.65979692	    -52.05448506	      8.28473798	      0.79369972	    -14.07322438	      4.07419631	      6.13625432
      4.23000000	      0.99937224	     -1.16625541	      8.31463172	      0.06991906	      1.00020230	     -0.60376652	      6.96464636	     12.76670004	     -0.59249249	    -21.27497613	     11.88686640	    -13.73626551	     19.13156144	     -9.45279697	      1.91623476	    -50.51190941	      8.64712698	     -0.01816787	    -14.17572477	      3.97445074	      6.47071974
      4.24000000	      0.89467788	     -1.19527406	      7.43210088	      0.07506150	      1.00005242	     -0.60348646	      6.61861963	     12.86215753	      0.24896915	    -21.21958916	     12.02280625	    -13.72675021	     19.73790319	     -9.47563765	      2.14525002	    -48.88101983	      8.99005822	     -0.66818791	    -14.29140084	      3.86754944	      6.76218509
      4.25000000	      0.76481562	     -1.19826531	      6.55811794	      0.08014154	      0.99984314	     -0.60328099	      6.32297708	     12.91230922	      1.07695439	    -21.21341635	     12.19168458	    -13.72607844	     20.34374170	     -9.41186508	      2.34716420	    -47.18224165	      9.26731967	     -0.90622650	    -14.38818012	      3.74287204	      7.04752204
      4.26000000	      0.64937601	     -1.17612305	      5.71574191	      0.08519828	      0.99965980	     -0.60318596	      6.01565686	     12.92187081	      1.87764866	    -21.21471979	     12.35835216	    -13.71405639	     20.90369646	     -9.25780685	      2.55354457	    -45.40902402	      9.40805824	     -1.00583062	    -14.50572791	      3.61339659	      7.26460551
      4.27000000	      0.54129731	     -1.13256776	      4.89866631	      0.09024082	      0.99947797	     -0.60320288	      5.70790407	     12.89276450	      2.64961306	    -21.22966134	     12.54515370	    -13.69420280	     21.42429327	     -9.01740500	      2.77134387	    -43.57068855	      9.44571809	     -0.88172724	    -14.63356262	      3.48163235	      7.44952660
      4.28000000	      0.47012461	     -1.07916752	      4.11047855	      0.09530731	      0.99934351	     -0.60330145	      5.35352039	     12.84181918	      3.40051850	    -21.22928199	     12.74044491	    -13.64919355	     21.87470307	     -8.71599308	      2.99785604	    -41.67273912	      9.39589240	     -0.36522195	    -14.80117934	      3.35728983	      7.59408698
      4.29000000	      0.37351263	     -1.00356675	      3.35923207	      0.10037361	      0.99914014	     -0.60350652	      5.04213882	     12.74729015	      4.09489803	    -21.25165120	     12.96866312	    -13.61728074	     22.32648948	     -8.32900074	      3.25713068	    -39.72590921	      9.24068691	      0.35597270	    -14.93482418	      3.22376246	      7.69103527
      4.30000000	      0.28646413	     -0.91798782	      2.64719415	      0.10546710	      0.99892126	     -0.60379940	      4.72631903	     12.62772338	      4.74221977	    -21.27680266	     13.21396145	    -13.58564114	     22.73974008	     -7.88122585	      3.55179348	    -37.73089437	      8.99617727	      1.24504034	    -15.07334586	      3.09572244	      7.73796873
      4.31000000	      0.20639348	     -0.82551463	      1.97490257	      0.11061642	      0.99868564	     -0.60416453	      4.39777934	     12.48531613	      5.33662877	    -21.28401460	     13.47233410	    -13.55450026	     23.11476416	     -7.38741285	      3.86912988	    -35.68962134	      8.66314674	      2.25278138	    -15.20900256	      2.97418531	      7.74343077
